<?xml version="1.0" encoding="UTF-8"?>
<svg id="_图层_1" data-name="图层 1" xmlns="http://www.w3.org/2000/svg" xmlns:xlink="http://www.w3.org/1999/xlink" viewBox="0 0 796.03 566.36">
  <defs>
    <style>
      .cls-1 {
        fill: #fff;
      }

      .cls-1, .cls-2 {
        font-family: SJqinyunxiaozhuan-Regular, SJqinyunxiaozhuan;
        font-size: 400px;
      }

      .cls-3 {
        opacity: .8;
      }

      .cls-2, .cls-4 {
        fill: #10b981;
      }

      .cls-5 {
        fill: url(#_未命名的渐变_259);
      }
    </style>
    <radialGradient id="_未命名的渐变_259" data-name="未命名的渐变 259" cx="269.97" cy="279.21" fx="269.97" fy="279.21" r="286.83" gradientTransform="translate(82.55 -68.5) rotate(15)" gradientUnits="userSpaceOnUse">
      <stop offset="0" stop-color="#10b981" stop-opacity=".8"/>
      <stop offset="1" stop-color="#10b981"/>
    </radialGradient>
  </defs>
  <g id="_虚框" data-name="虚框">
    <path class="cls-4" d="m420.25,10c7.3,0,14.54.95,21.54,2.82l284.37,76.2c20.83,5.58,38.24,18.94,49.03,37.62,10.78,18.68,13.65,40.44,8.07,61.27l-76.2,284.37c-9.45,35.25-41.49,59.87-77.94,59.87-7.04,0-14.09-.93-20.96-2.77l-284.37-76.2c-44.1-11.82-68.71-57.16-59.97-110.36L339.71,59.63c5.87-13.35,16.85-25.67,30.97-34.74,14.94-9.6,32.54-14.89,49.58-14.89h0M420.25,0c-39.91,0-76.7,25.15-90.01,56.33l-76.2,284.37c-9.97,59.41,18.76,109.17,67.17,122.14l284.37,76.2c7.87,2.11,15.77,3.11,23.54,3.11,40.06,0,76.73-26.74,87.6-67.28l76.2-284.37c12.97-48.41-15.76-98.17-64.17-111.14L444.38,3.16C436.31,1,428.22,0,420.25,0h0Z"/>
  </g>
  <text class="cls-2" transform="translate(307.76 344.21) rotate(15)"><tspan x="0" y="0">刹</tspan></text>
  <g id="_实框" data-name="实框" class="cls-3">
    <path class="cls-5" d="m166.91,537.13c-38.7,0-72.74-26.14-82.77-63.57L7.94,189.18c-12.24-45.67,14.96-92.78,60.63-105.02L352.95,7.97c7.29-1.95,14.78-2.94,22.25-2.94,38.7,0,72.74,26.14,82.77,63.57l76.2,284.37c12.24,45.67-14.96,92.78-60.63,105.02l-284.37,76.2c-7.29,1.95-14.78,2.94-22.25,2.94Z"/>
    <path class="cls-4" d="m375.2,10.02c36.44,0,68.49,24.62,77.93,59.87l76.2,284.37c5.58,20.83,2.72,42.59-8.07,61.27-10.78,18.68-28.2,32.04-49.03,37.62l-284.37,76.2c-6.87,1.84-13.92,2.77-20.96,2.77-36.44,0-68.49-24.62-77.94-59.87L12.77,187.89c-5.58-20.83-2.72-42.59,8.07-61.27,10.78-18.68,28.2-32.04,49.03-37.62L354.24,12.8c6.87-1.84,13.92-2.77,20.96-2.77h0m0-10c-7.77,0-15.68,1.01-23.54,3.11L67.28,79.34C18.87,92.31-9.86,142.07,3.11,190.47l76.2,284.37c10.86,40.54,47.53,67.28,87.6,67.28,7.77,0,15.68-1.01,23.54-3.11l284.37-76.2c48.41-12.97,77.14-62.73,64.17-111.14l-76.2-284.37C451.93,26.76,415.26.02,375.2.02h0Z"/>
  </g>
  <text class="cls-1" transform="translate(93.97 447.74) rotate(-15)"><tspan x="0" y="0">梵</tspan></text>
</svg>