<?xml version="1.0" encoding="UTF-8"?>
<svg id="_图层_1" data-name="图层 1" xmlns="http://www.w3.org/2000/svg" xmlns:xlink="http://www.w3.org/1999/xlink" viewBox="0 0 800 600">
  <defs>
    <style>
      .cls-1, .cls-2 {
        fill: #fff;
      }

      .cls-2, .cls-3 {
        font-family: SJqinyunxiaozhuan-Regular, SJqinyunxiaozhuan;
        font-size: 400px;
      }

      .cls-4 {
        opacity: .8;
      }

      .cls-5 {
        fill: #e6e6e6;
      }

      .cls-3, .cls-6 {
        fill: #10b981;
      }

      .cls-7 {
        fill: url(#_未命名的渐变_259);
      }
    </style>
    <radialGradient id="_未命名的渐变_259" data-name="未命名的渐变 259" cx="270.91" cy="308.14" fx="270.91" fy="308.14" r="286.83" gradientTransform="translate(90.07 -67.76) rotate(15)" gradientUnits="userSpaceOnUse">
      <stop offset="0" stop-color="#10b981" stop-opacity=".8"/>
      <stop offset="1" stop-color="#10b981"/>
    </radialGradient>
  </defs>
  <rect class="cls-5" width="800" height="600"/>
  <g id="_虚框" data-name="虚框">
    <path class="cls-1" d="m421.2,38.92c7.3,0,14.54.95,21.54,2.82l284.37,76.2c20.83,5.58,38.24,18.94,49.03,37.62,10.78,18.68,13.65,40.44,8.07,61.27l-76.2,284.37c-9.45,35.25-41.49,59.87-77.94,59.87-7.04,0-14.09-.93-20.96-2.77l-284.37-76.2c-44.1-11.82-68.71-57.16-59.97-110.36l75.88-283.19c5.87-13.35,16.85-25.67,30.97-34.74,14.94-9.6,32.54-14.89,49.58-14.89h0m0-10c-39.91,0-76.7,25.15-90.01,56.33l-76.2,284.37c-9.97,59.41,18.76,109.17,67.17,122.14l284.37,76.2c7.87,2.11,15.77,3.11,23.54,3.11,40.06,0,76.73-26.74,87.6-67.28l76.2-284.37c12.97-48.41-15.76-98.17-64.17-111.14L445.33,32.09c-8.06-2.16-16.16-3.16-24.13-3.16h0Z"/>
  </g>
  <text class="cls-3" transform="translate(308.71 373.14) rotate(15)"><tspan x="0" y="0">刹</tspan></text>
  <g id="_实框" data-name="实框" class="cls-4">
    <path class="cls-7" d="m167.86,566.05c-38.7,0-72.74-26.14-82.77-63.57L8.89,218.1c-12.24-45.67,14.96-92.78,60.63-105.02L353.9,36.89c7.29-1.95,14.78-2.94,22.25-2.94,38.7,0,72.74,26.14,82.77,63.57l76.2,284.37c12.24,45.67-14.96,92.78-60.63,105.02l-284.37,76.2c-7.29,1.95-14.78,2.94-22.25,2.94Z"/>
    <path class="cls-6" d="m376.15,38.95c36.44,0,68.49,24.62,77.93,59.87l76.2,284.37c5.58,20.83,2.72,42.59-8.07,61.27-10.78,18.68-28.2,32.04-49.03,37.62l-284.37,76.2c-6.87,1.84-13.92,2.77-20.96,2.77-36.44,0-68.49-24.62-77.94-59.87L13.72,216.81c-5.58-20.83-2.72-42.59,8.07-61.27,10.78-18.68,28.2-32.04,49.03-37.62L355.19,41.72c6.87-1.84,13.92-2.77,20.96-2.77h0m0-10c-7.77,0-15.68,1.01-23.54,3.11L68.23,108.26C19.82,121.23-8.91,170.99,4.06,219.4l76.2,284.37c10.86,40.54,47.53,67.28,87.6,67.28,7.77,0,15.68-1.01,23.54-3.11l284.37-76.2c48.41-12.97,77.14-62.73,64.17-111.14l-76.2-284.37c-10.86-40.54-47.53-67.28-87.6-67.28h0Z"/>
  </g>
  <text class="cls-2" transform="translate(94.92 476.66) rotate(-15)"><tspan x="0" y="0">梵</tspan></text>
</svg>